<svg xmlns="http://www.w3.org/2000/svg" width="64" height="64" viewBox="0 0 64 64">
  <defs>
    <radialGradient id="treasureGrad" cx="50%" cy="30%" r="80%">
      <stop offset="0%" style="stop-color:#FFD700;stop-opacity:1" />
      <stop offset="100%" style="stop-color:#B8860B;stop-opacity:1" />
    </radialGradient>
    <linearGradient id="chestGrad" x1="0%" y1="0%" x2="100%" y2="100%">
      <stop offset="0%" style="stop-color:#8B4513;stop-opacity:1" />
      <stop offset="100%" style="stop-color:#654321;stop-opacity:1" />
    </linearGradient>
  </defs>
  
  <!-- 宝箱阴影 -->
  <ellipse cx="32" cy="58" rx="18" ry="4" fill="#000000" opacity="0.2"/>
  
  <!-- 宝箱底部 -->
  <rect x="12" y="32" width="40" height="24" fill="url(#chestGrad)" stroke="#5D4037" stroke-width="2" rx="4"/>
  
  <!-- 宝箱顶部 -->
  <path d="M 12 32 Q 12 20 32 20 Q 52 20 52 32 L 52 40 L 12 40 Z" fill="url(#chestGrad)" stroke="#5D4037" stroke-width="2"/>
  
  <!-- 金色装饰条 -->
  <rect x="12" y="36" width="40" height="4" fill="url(#treasureGrad)"/>
  <rect x="28" y="20" width="8" height="36" fill="url(#treasureGrad)"/>
  
  <!-- 侧面装饰 -->
  <rect x="14" y="24" width="4" height="12" fill="url(#treasureGrad)" rx="2"/>
  <rect x="46" y="24" width="4" height="12" fill="url(#treasureGrad)" rx="2"/>
  
  <!-- 锁头 -->
  <circle cx="32" cy="40" r="6" fill="#B8860B" stroke="#8B4513" stroke-width="2"/>
  <circle cx="32" cy="40" r="3" fill="#FFD700"/>
  
  <!-- 钥匙孔 -->
  <rect x="31" y="38" width="2" height="4" fill="#654321" rx="1"/>
  
  <!-- 闪光效果 -->
  <circle cx="22" cy="28" r="2" fill="#FFD700" opacity="0.8"/>
  <circle cx="42" cy="26" r="1.5" fill="#FFD700" opacity="0.6"/>
  <circle cx="36" cy="50" r="1.2" fill="#FFD700" opacity="0.7"/>
  <circle cx="20" cy="48" r="1" fill="#FFD700" opacity="0.5"/>
</svg>
